<svg id="_x33_0" enable-background="new 0 0 64 64" height="512" viewBox="0 0 64 64" width="512" xmlns="http://www.w3.org/2000/svg" xmlns:xlink="http://www.w3.org/1999/xlink"><linearGradient id="SVGID_1_" gradientUnits="userSpaceOnUse" x1="31.991" x2="31.991" y1="63" y2="1"><stop offset="0" stop-color="#9f2fff"/><stop offset="1" stop-color="#0bb1d3"/></linearGradient><path d="m52.289 23.305c.045-.114.085-.227.125-.338 1.574-.165 3.586-1.272 3.586-3.967v-9c0-.09-.148-9-13-9s-13 8.91-13 9v9c0 2.695 2.012 3.802 3.586 3.966.039.112.08.224.125.338-2.941.895-10.711 4.162-10.711 13.696 0 4.605 2.255 7.591 5.011 9.524.092 6.895 1.922 9.778 2.885 10.814-.507.635-.896 1.507-.896 2.662l-.001.215c-.006.768-.012 1.638.598 2.252.351.353.823.533 1.403.533h10 2 10c.58 0 1.052-.18 1.403-.533.609-.614.604-1.484.598-2.252l-.001-.215c0-1.155-.389-2.027-.896-2.662.964-1.036 2.794-3.919 2.885-10.814 2.756-1.933 5.011-4.919 5.011-9.524 0-9.534-7.77-12.801-10.711-13.695zm-17.289-3.305v-7.988c.005-.202.047-.419.156-.601.121.532.321 1.082.646 1.626 1.334 2.237 4.188 3.569 8.481 3.96l.103-1.133c1.428.726 3.279 1.248 5.678 1.248.303 0 .616-.01.936-.027v2.912c-.002.286-.139 7.003-8 7.003s-7.998-6.717-8-7zm17.932.799c.063-.48.068-.783.068-.799v-2.996c.212.023 1 .226 1 1.996 0 1.077-.534 1.569-1.068 1.799zm-9.932-17.799c10.788 0 10.996 6.72 11 7v5.227c-.363-.155-.716-.227-1-.227v-3h-2v3.068c-7.264.43-8.982-4.186-9.054-4.391l-1.895.639c.011.035.648 1.846 2.605 3.434-2.559-.471-4.324-1.393-5.126-2.721-1.023-1.694-.243-3.621-.235-3.641l-.921-.388-.919-.394c-.023.053-.271.654-.39 1.534-1.488.429-2.065 1.846-2.065 2.86v3c-.284 0-.637.072-1 .227v-5.221c.004-.286.212-7.006 11-7.006zm-11 16c0-1.77.788-1.973 1-1.996v2.996c0 .016.005.318.068.798-.535-.23-1.068-.722-1.068-1.798zm20 20.595c-1.83 1.796-4.304 2.289-4.957 2.39-.522-.106-1.862-.301-3.043.108v-7.093c0-.123.046-3 4-3 3.834 0 3.994 2.701 4 3zm0 16.405h-8v-5.433c.557.183 1.175.314 1.812.314.894 0 1.813-.245 2.619-.919.611-.071 1.946-.266 3.569-.716zm-12.131-12.129c.62-.062 1.41-.042 1.816.277.134.106.315.31.315.852v3.416c-.659.324-1.922.78-2.917.169zm6.262-.001.786 4.715c-.998.615-2.257.159-2.917-.168v-3.417c0-.542.181-.746.315-.852.406-.32 1.196-.34 1.816-.278zm-4.131-1.777c-1.181-.409-2.519-.216-3.042-.109-.658-.1-3.129-.594-4.958-2.388v-4.596c0-.123.046-3 4-3 3.834 0 3.994 2.701 4 3zm-4.431 7.868c.806.674 1.726.919 2.619.919.636 0 1.254-.13 1.812-.314v5.434h-8v-6.755c1.623.45 2.959.645 3.569.716zm-5.569 5.543c-.67-.989-1.73-3.25-1.954-7.764.654.33 1.312.612 1.954.855zm.025 5.49c-.03-.192-.028-.527-.026-.765l.001-.229c0-1.347.868-1.858 1.186-2h8.814v3zm21.949.006h-9.974v-3h8.811c.329.147 1.189.659 1.189 2l.001.229c.002.241.004.58-.027.771zm.026-5.496v-6.909c.642-.242 1.3-.525 1.954-.855-.222 4.516-1.277 6.771-1.954 7.764zm-5.17-7.604-.685-4.109c2.523-.619 8.731-2.96 7.849-10.901l-1.988.221c.095.858.081 1.626-.006 2.328v-.439c0-1.729-1.254-5-6-5-2.582 0-4.125.97-5 2.131-.875-1.161-2.418-2.131-5-2.131-4.746 0-6 3.271-6 5v.441c-.087-.702-.101-1.472-.006-2.33l-1.988-.221c-.882 7.941 5.325 10.282 7.849 10.901l-.685 4.109c-2.973-.417-12.17-2.392-12.17-10.9 0-8.798 7.536-11.352 9.648-11.895 1.358 2.031 3.831 3.895 8.352 3.895s6.994-1.864 8.352-3.895c2.112.543 9.648 3.097 9.648 11.895 0 8.508-9.197 10.483-12.17 10.9zm-9.761-28.016c-1.134 0-2.157-.558-2.776-1.177l1.408-1.42c.31.3 1.41 1.185 2.592.006l1.414 1.414c-.856.856-1.778 1.177-2.638 1.177zm8 0c-1.134 0-2.157-.558-2.776-1.177l1.408-1.42c.31.3 1.411 1.185 2.592.006l1.414 1.414c-.856.856-1.778 1.177-2.638 1.177zm-7.385 3.167c.136-.046 3.351-1.095 6.633 0l-.633 1.897c-2.654-.886-5.341-.009-5.367 0zm-25.684 39.949c4.95 0 8.585-1.256 10.803-3.734 2.55-2.849 2.207-6.233 2.191-6.376l-.098-.89h-25.792l-.099.89c-.016.143-.358 3.527 2.191 6.376 2.219 2.478 5.854 3.734 10.804 3.734zm10.995-9c-.084.957-.427 2.529-1.683 3.932-1.822 2.036-4.955 3.068-9.312 3.068-4.339 0-7.465-1.024-9.29-3.043-1.26-1.394-1.61-2.988-1.699-3.957zm-12.995-3c5.514 0 10-4.486 10-10s-4.486-10-10-10-10 4.486-10 10 4.486 10 10 10zm0-18c4.411 0 8 3.589 8 8s-3.589 8-8 8-8-3.589-8-8 3.589-8 8-8zm-1 13h-3v-2h6v-2h-6v-6h3v-2h2v2h3v2h-6v2h6v6h-3v2h-2z" fill="url(#SVGID_1_)"/></svg>